<?xml version="1.0" encoding="UTF-8" standalone="no"?>
<svg
   xmlns:dc="http://purl.org/dc/elements/1.1/"
   xmlns:cc="http://creativecommons.org/ns#"
   xmlns:rdf="http://www.w3.org/1999/02/22-rdf-syntax-ns#"
   xmlns:svg="http://www.w3.org/2000/svg"
   xmlns="http://www.w3.org/2000/svg"
   xmlns:sodipodi="http://sodipodi.sourceforge.net/DTD/sodipodi-0.dtd"
   xmlns:inkscape="http://www.inkscape.org/namespaces/inkscape"
   version="1.1"
   id="svg2"
   xml:space="preserve"
   width="793.70135"
   height="197"
   viewBox="0 0 793.70135 197"
   sodipodi:docname="basketgourme_logo.ai"><metadata
     id="metadata8"><rdf:RDF><cc:Work
         rdf:about=""><dc:format>image/svg+xml</dc:format><dc:type
           rdf:resource="http://purl.org/dc/dcmitype/StillImage" /></cc:Work></rdf:RDF></metadata><defs
     id="defs6"><clipPath
       clipPathUnits="userSpaceOnUse"
       id="clipPath18"><path
         d="M 0,147.75 H 595.276 V 0 H 0 Z"
         id="path16" /></clipPath></defs><sodipodi:namedview
     pagecolor="#ffffff"
     bordercolor="#666666"
     borderopacity="1"
     objecttolerance="10"
     gridtolerance="10"
     guidetolerance="10"
     inkscape:pageopacity="0"
     inkscape:pageshadow="2"
     inkscape:window-width="640"
     inkscape:window-height="480"
     id="namedview4" /><g
     id="g10"
     inkscape:groupmode="layer"
     inkscape:label="basketgourme_logo"
     transform="matrix(1.3333333,0,0,-1.3333333,0,197)"><g
       id="g12"><g
         id="g14"
         clip-path="url(#clipPath18)"><g
           id="g20"
           transform="translate(39.8564,48.04)"><path
             d="m 0,0 h 9.26 c 3.719,0 8.266,0 11.987,3.307 2.976,2.646 3.554,5.87 3.554,8.433 0,4.96 -1.736,8.349 -5.869,10.25 -1.488,0.662 -4.217,1.572 -10.334,1.572 H 0 Z m 0,26.868 h 8.764 c 2.81,0 5.125,0.331 7.523,2.315 2.232,1.819 3.637,4.63 3.637,8.432 0,4.382 -1.902,7.11 -3.72,8.598 -2.728,2.15 -6.284,2.315 -9.177,2.315 H 0 Z m -3.637,24.967 h 12.07 c 9.589,0 15.211,-5.539 15.211,-13.806 0,-5.953 -2.811,-9.838 -6.448,-12.07 7.192,-1.158 11.408,-6.696 11.408,-13.807 0,-9.672 -7.109,-15.459 -17.112,-15.459 H -3.637 Z"
             style="fill:#231f20;fill-opacity:1;fill-rule:nonzero;stroke:none"
             id="path22" /></g><g
           id="g24"
           transform="translate(80.2031,61.8462)"><path
             d="m 0,0 c 0,-7.605 4.712,-14.881 13.227,-14.881 8.433,0 13.063,7.11 13.063,14.881 0,10.003 -7.358,14.219 -13.145,14.219 C 6.448,14.219 0,9.176 0,0 m 26.124,16.617 h 3.307 v -33.73 h -3.307 v 6.035 c -3.389,-5.209 -8.763,-6.944 -13.145,-6.944 -8.846,0 -16.451,6.696 -16.451,17.774 0,10.416 6.613,17.609 16.451,17.609 5.291,0 9.92,-2.067 13.145,-6.614 z"
             style="fill:#231f20;fill-opacity:1;fill-rule:nonzero;stroke:none"
             id="path26" /></g><g
           id="g28"
           transform="translate(136.5864,72.2627)"><path
             d="m 0,0 c -1.157,2.645 -3.472,3.803 -5.869,3.803 -3.803,0 -5.705,-2.894 -5.705,-5.374 0,-3.306 2.646,-4.381 5.953,-5.704 3.389,-1.323 6.531,-2.232 8.68,-4.96 1.406,-1.737 1.736,-3.555 1.736,-5.456 0,-7.689 -5.787,-10.748 -10.995,-10.748 -5.622,0 -10.251,3.307 -11.656,8.928 l 3.223,0.992 c 1.158,-4.463 4.713,-6.778 8.433,-6.778 4.299,0 7.523,3.059 7.523,7.44 0,3.803 -2.397,5.209 -7.523,7.275 -3.39,1.405 -5.87,2.48 -7.358,4.464 -0.744,0.993 -1.487,2.398 -1.487,4.382 0,5.126 3.885,8.68 9.01,8.68 3.969,0 7.275,-1.818 8.846,-5.456 z"
             style="fill:#231f20;fill-opacity:1;fill-rule:nonzero;stroke:none"
             id="path30" /></g><g
           id="g32"
           transform="translate(153.1226,105.001)"><path
             d="m 0,0 v -41.005 l 13.889,14.467 h 4.298 L 3.968,-41.171 22.817,-60.268 H 18.353 L 1.736,-43.568 0,-45.304 v -14.964 h -3.307 l 0,60.268 z"
             style="fill:#231f20;fill-opacity:1;fill-rule:nonzero;stroke:none"
             id="path34" /></g><g
           id="g36"
           transform="translate(206.6958,64.3262)"><path
             d="m 0,0 c -0.827,6.696 -5.787,11.739 -12.483,11.739 -6.862,0 -11.74,-5.208 -12.649,-11.739 z m -25.38,-3.142 c 0,-8.597 6.283,-14.219 13.393,-14.219 5.456,0 9.59,3.224 11.739,7.689 l 2.811,-1.654 c -1.984,-3.802 -6.448,-9.176 -14.798,-9.176 -10.5,0 -16.617,7.771 -16.617,17.608 0,11.74 8.101,17.775 16.369,17.775 9.094,0 15.955,-7.275 15.955,-18.023 z"
             style="fill:#231f20;fill-opacity:1;fill-rule:nonzero;stroke:none"
             id="path38" /></g><g
           id="g40"
           transform="translate(223.48,75.3213)"><path
             d="M 0,0 V -30.588 H -3.307 V 0 h -3.72 v 3.142 h 3.72 V 15.211 H 0 V 3.142 H 5.869 V 0 Z"
             style="fill:#231f20;fill-opacity:1;fill-rule:nonzero;stroke:none"
             id="path42" /></g><g
           id="g44"
           transform="translate(266.2212,71.188)"><path
             d="m 0,0 h 23.148 c 0,-5.043 -1.075,-12.318 -5.622,-18.105 -4.878,-6.2 -12.318,-9.259 -20.751,-9.259 -16.203,0 -28.521,11.905 -28.521,28.356 0,16.369 12.731,28.439 28.769,28.439 7.772,0 12.98,-2.646 17.279,-5.952 2.314,-1.819 4.382,-3.803 6.613,-6.945 l -2.893,-2.315 c -1.571,2.646 -3.803,4.878 -5.291,6.118 -3.472,2.894 -8.929,5.788 -15.79,5.788 -14.137,0 -24.884,-11.244 -24.884,-25.298 0,-13.806 10.417,-24.884 24.636,-24.884 9.424,0 16.204,4.795 19.18,9.342 2.149,3.307 3.472,7.853 3.637,11.408 l -19.51,0 z"
             style="fill:#231f20;fill-opacity:1;fill-rule:nonzero;stroke:none"
             id="path46" /></g><g
           id="g48"
           transform="translate(351.7061,72.1802)"><path
             d="m 0,0 c 0,14.137 -10.582,25.132 -24.801,25.132 -14.22,0 -24.803,-10.995 -24.803,-25.132 0,-14.054 10.583,-25.049 24.803,-25.049 C -10.582,-25.049 0,-14.054 0,0 m 3.803,0 c 0,-15.873 -12.484,-28.356 -28.604,-28.356 -16.204,0 -28.605,12.483 -28.605,28.356 0,15.873 12.483,28.438 28.605,28.438 C -8.681,28.438 3.803,15.873 3.803,0"
             style="fill:#231f20;fill-opacity:1;fill-rule:nonzero;stroke:none"
             id="path50" /></g><g
           id="g52"
           transform="translate(371.0547,99.875)"><path
             d="m 0,0 v -34.474 c 0,-5.209 0.249,-8.598 2.315,-11.905 3.225,-5.208 9.259,-6.365 12.814,-6.365 3.555,0 9.59,1.157 12.814,6.365 2.067,3.307 2.315,6.696 2.315,11.905 V 0 h 3.637 v -34.474 c 0,-6.035 -0.331,-10.004 -3.141,-14.137 -4.134,-6.035 -10.664,-7.44 -15.625,-7.44 -4.96,0 -11.491,1.405 -15.625,7.44 -2.811,4.133 -3.142,8.102 -3.142,14.137 l 0,34.474 z"
             style="fill:#231f20;fill-opacity:1;fill-rule:nonzero;stroke:none"
             id="path54" /></g><g
           id="g56"
           transform="translate(423.4707,74.0815)"><path
             d="m 0,0 h 5.291 c 7.854,0 12.565,4.133 12.565,11.243 0,5.539 -2.728,8.433 -4.877,9.59 -2.315,1.323 -6.283,1.654 -8.433,1.654 H 0 Z M 19.511,-29.348 1.652,-3.307 H 0 v -26.041 h -3.638 v 55.141 h 7.937 c 4.217,0 8.019,-0.33 11.656,-2.81 C 20.254,20.006 21.66,15.459 21.66,11.16 21.66,5.705 19.263,0.083 12.4,-2.232 9.507,-3.224 6.861,-3.307 5.622,-3.307 l 18.022,-26.041 z"
             style="fill:#231f20;fill-opacity:1;fill-rule:nonzero;stroke:none"
             id="path58" /></g><g
           id="g60"
           transform="translate(457.9463,44.7334)"><path
             d="M 0,0 6.282,57.043 30.175,6.035 54.067,57.043 60.351,0 h -3.639 l -4.877,44.312 c 0,0 -21.577,-46.296 -21.66,-46.296 L 8.515,44.312 3.638,0 Z"
             style="fill:#231f20;fill-opacity:1;fill-rule:nonzero;stroke:none"
             id="path62" /></g><g
           id="g64"
           transform="translate(559.0566,96.5684)"><path
             d="m 0,0 h -22.816 v -20.007 h 22.32 v -3.306 h -22.32 V -48.528 H 0 v -3.307 H -26.454 V 3.307 L 0,3.307 Z"
             style="fill:#231f20;fill-opacity:1;fill-rule:nonzero;stroke:none"
             id="path66" /></g></g></g></g></svg>
