<?xml version="1.0" encoding="UTF-8" standalone="no"?>
<!-- Created with Inkscape (http://www.inkscape.org/) -->

<svg
   version="1.1"
   id="svg372"
   width="208.98532"
   height="207.94667"
   xmlns:inkscape="http://www.inkscape.org/namespaces/inkscape"
   xmlns:sodipodi="http://sodipodi.sourceforge.net/DTD/sodipodi-0.dtd"
   xmlns="http://www.w3.org/2000/svg"
   xmlns:svg="http://www.w3.org/2000/svg">
  <defs
     id="defs376" />
  <sodipodi:namedview
     id="namedview374"
     pagecolor="#ffffff"
     bordercolor="#666666"
     borderopacity="1.0"
     inkscape:pageshadow="2"
     inkscape:pageopacity="0.0"
     inkscape:pagecheckerboard="0" />
  <inkscape:clipboard
     style="font-variation-settings:normal;opacity:1;vector-effect:none;fill:none;fill-opacity:1;stroke-width:6.6666665;stroke-linecap:butt;stroke-linejoin:bevel;stroke-miterlimit:10;stroke-dasharray:none;stroke-dashoffset:0;stroke-opacity:1;-inkscape-stroke:none;stop-color:#000000;stop-opacity:1;stroke:#050606"
     min="7.6719998,811.46627"
     max="216.65733,1019.4129"
     geom-min="11.005333,814.79099"
     geom-max="213.32399,1016.0796" />
  <g
     id="g378"
     transform="matrix(1.3333333,0,0,-1.3333333,-7.6719998,311.05373)">
    <g
       id="g314"
       transform="translate(102.5576,217.9479)">
      <path
         d="M 0,0 C -1.808,4.968 0.753,10.461 5.721,12.269 10.689,14.077 16.182,11.516 17.99,6.548 18.586,4.909 18.699,3.215 18.415,1.613 L 15.436,-14.422 2.846,-4.053 C 1.599,-3.008 0.596,-1.639 0,0 Z"
         style="fill:none;stroke:#050606;stroke-width:5;stroke-linecap:butt;stroke-linejoin:bevel;stroke-miterlimit:10;stroke-dasharray:none;stroke-opacity:1"
         id="path316" />
    </g>
    <g
       id="g318"
       transform="translate(138.2007,197.3694)">
      <path
         d="m 0,0 c 5.206,0.918 8.683,5.883 7.765,11.089 -0.918,5.206 -5.883,8.683 -11.089,7.765 -1.718,-0.303 -3.241,-1.053 -4.486,-2.1 L -20.207,6.157 -4.933,0.439 C -3.405,-0.119 -1.717,-0.303 0,0 Z"
         style="fill:none;stroke:#050606;stroke-width:5;stroke-linecap:butt;stroke-linejoin:bevel;stroke-miterlimit:10;stroke-dasharray:none;stroke-opacity:1"
         id="path320" />
    </g>
    <path
       d="m 8.254,125.894 h 151.739 v 18.967 H 8.254 Z"
       style="fill:none;stroke:#050606;stroke-width:5;stroke-linecap:butt;stroke-linejoin:miter;stroke-miterlimit:10;stroke-dasharray:none;stroke-opacity:1"
       id="path322" />
    <g
       id="g324"
       transform="translate(35.3498,79.8303)">
      <path
         d="m 0,0 v 0 h 97.546 v 0 c 13.646,10.234 21.677,26.296 21.677,43.354 v 2.71 h -140.9 v -2.71 C -21.677,26.296 -13.646,10.234 0,0 Z"
         style="fill:none;stroke:#050606;stroke-width:5;stroke-linecap:butt;stroke-linejoin:miter;stroke-miterlimit:10;stroke-dasharray:none;stroke-opacity:1"
         id="path326" />
    </g>
    <g
       id="g328"
       transform="translate(130.1865,144.8612)">
      <path
         d="M 0,0 V 32.515 H -43.354 V 21.677"
         style="fill:none;stroke:#050606;stroke-width:5;stroke-linecap:butt;stroke-linejoin:miter;stroke-miterlimit:10;stroke-dasharray:none;stroke-opacity:1"
         id="path330" />
    </g>
    <g
       id="g332"
       transform="translate(151.8635,144.8612)">
      <path
         d="m 0,0 v 0 c 0,37.412 -30.328,67.741 -67.741,67.741 -7.584,0 -14.868,-1.266 -21.676,-3.565"
         style="fill:none;stroke:#050606;stroke-width:5;stroke-linecap:butt;stroke-linejoin:miter;stroke-miterlimit:10;stroke-dasharray:none;stroke-opacity:1"
         id="path334" />
    </g>
    <g
       id="g336"
       transform="translate(46.1883,200.9897)">
      <path
         d="m 0,0 c -17.985,-12.179 -29.806,-32.772 -29.806,-56.128 v -10e-4"
         style="fill:none;stroke:#050606;stroke-width:5;stroke-linecap:butt;stroke-linejoin:miter;stroke-miterlimit:10;stroke-dasharray:none;stroke-opacity:1"
         id="path338" />
    </g>
    <g
       id="g340"
       transform="translate(108.5096,144.8612)">
      <path
         d="m 0,0 c 0,11.972 -9.705,21.677 -21.677,21.677 -5.13,0 -9.836,-1.791 -13.548,-4.77"
         style="fill:none;stroke:#050606;stroke-width:5;stroke-linecap:butt;stroke-linejoin:miter;stroke-miterlimit:10;stroke-dasharray:none;stroke-opacity:1"
         id="path342" />
    </g>
    <g
       id="g344"
       transform="translate(62.446,182.7958)">
      <path
         d="m 0,0 h -16.258 l -10.838,-10.838 v -27.097 h 37.934 v 27.097 z"
         style="fill:none;stroke:#050606;stroke-width:5;stroke-linecap:butt;stroke-linejoin:miter;stroke-miterlimit:10;stroke-dasharray:none;stroke-opacity:1"
         id="path346" />
    </g>
    <path
       d="M 62.446,218.021 H 46.188 v -35.225 h 16.258 z"
       style="fill:none;stroke:#050606;stroke-width:5;stroke-linecap:butt;stroke-linejoin:miter;stroke-miterlimit:10;stroke-dasharray:none;stroke-opacity:1"
       id="path348" />
  </g>
</svg>
