<?xml version="1.0" encoding="UTF-8" standalone="no"?>
<!-- Created with Inkscape (http://www.inkscape.org/) -->

<svg
   version="1.1"
   id="svg3979"
   width="210.70172"
   height="207.05972"
   xmlns:inkscape="http://www.inkscape.org/namespaces/inkscape"
   xmlns:sodipodi="http://sodipodi.sourceforge.net/DTD/sodipodi-0.dtd"
   xmlns="http://www.w3.org/2000/svg"
   xmlns:svg="http://www.w3.org/2000/svg">
  <defs
     id="defs3983" />
  <sodipodi:namedview
     id="namedview3981"
     pagecolor="#ffffff"
     bordercolor="#666666"
     borderopacity="1.0"
     inkscape:pageshadow="2"
     inkscape:pageopacity="0.0"
     inkscape:pagecheckerboard="0" />
  <inkscape:clipboard
     style="font-variation-settings:normal;opacity:1;vector-effect:none;fill:none;fill-opacity:1;stroke:#dfb777;stroke-width:6.66666652;stroke-linecap:round;stroke-linejoin:round;stroke-miterlimit:10;stroke-dasharray:none;stroke-dashoffset:0;stroke-opacity:1;-inkscape-stroke:none;stop-color:#000000;stop-opacity:1"
     min="384.089,202.37004"
     max="594.79073,409.42977"
     geom-min="387.42233,205.70337"
     geom-max="591.45819,406.09643" />
  <g
     id="g3985"
     transform="matrix(1.3333333,0,0,-1.3333333,-512.09812,1070.509)">
    <g
       id="g110"
       transform="translate(451.0468,771.6738)"
       style="stroke:#dfb777;stroke-opacity:1">
      <path
         d="m 0,0 c 0.711,2.156 1.109,4.453 1.109,6.847 0,12.073 -9.787,21.861 -21.86,21.861 -12.074,0 -21.861,-9.788 -21.861,-21.861 0,-12.074 9.787,-21.861 21.861,-21.861 4.115,0 7.95,1.158 11.237,3.135 C -8.479,-6.539 -4.856,-2.13 0,0 Z"
         style="fill:none;stroke:#dfb777;stroke-width:5;stroke-linecap:round;stroke-linejoin:round;stroke-miterlimit:10;stroke-dasharray:none;stroke-opacity:1"
         id="path112" />
    </g>
    <g
       id="g114"
       transform="translate(526.0905,751.3464)"
       style="stroke:#dfb777;stroke-opacity:1">
      <path
         d="M 0,0 C 1.163,-1.163 2.025,-2.502 2.681,-3.911 L 13.51,1.919 C 12.27,2.636 10.661,3.832 9.646,5.783 8.374,8.229 9.022,9.969 7.715,11.578 6.927,12.547 5.362,13.551 1.919,13.51 L -2.927,2.201 C -1.882,1.613 -0.891,0.891 0,0 Z"
         style="fill:none;stroke:#dfb777;stroke-width:5;stroke-linecap:round;stroke-linejoin:round;stroke-miterlimit:10;stroke-dasharray:none;stroke-opacity:1"
         id="path116" />
    </g>
    <g
       id="g118"
       transform="translate(526.0905,732.0238)"
       style="stroke:#dfb777;stroke-opacity:1">
      <path
         d="m 0,0 c 5.336,5.336 5.336,13.987 0,19.323 -3.158,3.157 -7.472,4.397 -11.578,3.818 l 8.68,-26.039 z"
         style="fill:none;stroke:#dfb777;stroke-width:5;stroke-linecap:round;stroke-linejoin:round;stroke-miterlimit:10;stroke-dasharray:none;stroke-opacity:1"
         id="path120" />
    </g>
    <g
       id="g122"
       transform="translate(432.8894,783.286)"
       style="stroke:#dfb777;stroke-opacity:1">
      <path
         d="m 0,0 c 4.121,0 7.462,-3.341 7.462,-7.462 0,-5.151 -4.176,-9.327 -9.327,-9.327 -6.44,0 -11.66,5.22 -11.66,11.659 0,8.049 6.525,14.574 14.574,14.574 9.408,0 17.147,-7.133 18.113,-16.285"
         style="fill:none;stroke:#dfb777;stroke-width:5;stroke-linecap:round;stroke-linejoin:round;stroke-miterlimit:10;stroke-dasharray:none;stroke-opacity:1"
         id="path124" />
    </g>
    <g
       id="g126"
       transform="translate(430.2953,756.6594)"
       style="stroke:#dfb777;stroke-opacity:1">
      <path
         d="M 0,0 V -30.059"
         style="fill:none;stroke:#dfb777;stroke-width:5;stroke-linecap:round;stroke-linejoin:round;stroke-miterlimit:10;stroke-dasharray:none;stroke-opacity:1"
         id="path128" />
    </g>
    <g
       id="g130"
       transform="translate(498.2703,726.6005)"
       style="stroke:#dfb777;stroke-opacity:1">
      <path
         d="M 0,0 -4.062,12.186 -6.96,9.288 C -9.533,6.715 -10.834,3.371 -10.926,0 Z"
         style="fill:none;stroke:#dfb777;stroke-width:5;stroke-linecap:round;stroke-linejoin:round;stroke-miterlimit:10;stroke-dasharray:none;stroke-opacity:1"
         id="path132" />
    </g>
    <g
       id="g134"
       transform="translate(477.2861,715.67)"
       style="stroke:#dfb777;stroke-opacity:1">
      <path
         d="m 0,0 -6.436,-11.148 c 0.258,-0.797 0.435,-1.632 0.435,-2.515 0,-4.528 -3.671,-8.198 -8.198,-8.198 -4.528,0 -8.198,3.67 -8.198,8.198 0,3.952 2.797,7.248 6.52,8.023 L -12.621,0 h -72.626 l 7.124,-42.749 c 2.196,-13.176 13.597,-22.834 26.955,-22.834 H 22.77 c 13.358,0 24.758,9.658 26.954,22.834 L 56.849,0 Z"
         style="fill:none;stroke:#dfb777;stroke-width:5;stroke-linecap:round;stroke-linejoin:round;stroke-miterlimit:10;stroke-dasharray:none;stroke-opacity:1"
         id="path136" />
    </g>
    <g
       id="g138"
       transform="translate(504.0771,773.0035)"
       style="stroke:#dfb777;stroke-opacity:1">
      <path
         d="m 0,0 v 0 c -2.614,1.509 -5.957,0.613 -7.466,-2 l -35.202,-60.973 c 0.542,0.112 1.102,0.174 1.678,0.174 3.644,0 6.696,-2.393 7.763,-5.682 L 2,-7.466 C 3.51,-4.852 2.614,-1.509 0,0 Z"
         style="fill:none;stroke:#dfb777;stroke-width:5;stroke-linecap:round;stroke-linejoin:round;stroke-miterlimit:10;stroke-dasharray:none;stroke-opacity:1"
         id="path140" />
    </g>
    <g
       id="g142"
       transform="translate(471.2846,702.007)"
       style="stroke:#dfb777;stroke-opacity:1">
      <path
         d="m 0,0 c 0,-4.528 -3.67,-8.198 -8.198,-8.198 -4.527,0 -8.198,3.67 -8.198,8.198 0,4.528 3.671,8.198 8.198,8.198 C -3.67,8.198 0,4.528 0,0 Z"
         style="fill:none;stroke:#dfb777;stroke-width:5;stroke-linecap:round;stroke-linejoin:round;stroke-miterlimit:10;stroke-dasharray:none;stroke-opacity:1"
         id="path144" />
    </g>
    <g
       id="g146"
       transform="translate(457.6215,740.2637)"
       style="stroke:#dfb777;stroke-opacity:1">
      <path
         d="M 0,0 V -13.663"
         style="fill:none;stroke:#dfb777;stroke-width:5;stroke-linecap:round;stroke-linejoin:round;stroke-miterlimit:10;stroke-dasharray:none;stroke-opacity:1"
         id="path148" />
    </g>
    <g
       id="g150"
       transform="translate(474.0172,756.6594)"
       style="stroke:#dfb777;stroke-opacity:1">
      <path
         d="m 0,0 c 0,-9.055 -7.341,-16.396 -16.396,-16.396 -9.055,0 -16.395,7.341 -16.395,16.396 0,9.055 7.34,16.396 16.395,16.396 C -7.341,16.396 0,9.055 0,0 Z"
         style="fill:none;stroke:#dfb777;stroke-width:5;stroke-linecap:round;stroke-linejoin:round;stroke-miterlimit:10;stroke-dasharray:none;stroke-opacity:1"
         id="path152" />
    </g>
    <g
       id="g154"
       transform="translate(511.1519,726.6005)"
       style="stroke:#dfb777;stroke-opacity:1">
      <path
         d="M 0,0 -7.282,21.847 -16.944,12.186 -12.882,0 Z"
         style="fill:none;stroke:#dfb777;stroke-width:5;stroke-linecap:round;stroke-linejoin:round;stroke-miterlimit:10;stroke-dasharray:none;stroke-opacity:1"
         id="path156" />
    </g>
    <g
       id="g158"
       transform="translate(520.6671,726.6005)"
       style="stroke:#dfb777;stroke-opacity:1">
      <path
         d="m 0,0 2.525,2.525 -8.68,26.039 c -2.831,-0.4 -5.566,-1.64 -7.744,-3.818 L -16.797,21.847 -9.515,0 Z"
         style="fill:none;stroke:#dfb777;stroke-width:5;stroke-linecap:round;stroke-linejoin:round;stroke-miterlimit:10;stroke-dasharray:none;stroke-opacity:1"
         id="path160" />
    </g>
    <g
       id="g162"
       transform="translate(401.202,744.1689)"
       style="stroke:#dfb777;stroke-opacity:1">
      <path
         d="M 0,0 C 1.162,1.161 2.483,2.038 3.859,2.778 L -1.919,13.51 C -2.636,12.27 -3.832,10.661 -5.783,9.646 -8.23,8.374 -9.969,9.022 -11.578,7.715 -12.547,6.927 -13.551,5.362 -13.51,1.919 L -2.259,-2.902 C -1.617,-1.878 -0.891,-0.891 0,0 Z"
         style="fill:none;stroke:#dfb777;stroke-width:5;stroke-linecap:round;stroke-linejoin:round;stroke-miterlimit:10;stroke-dasharray:none;stroke-opacity:1"
         id="path164" />
    </g>
    <g
       id="g166"
       transform="translate(428.0483,726.6005)"
       style="stroke:#dfb777;stroke-opacity:1">
      <path
         d="m 0,0 c 2.299,5.881 1.092,12.818 -3.659,17.568 -6.403,6.403 -16.784,6.403 -23.187,0 C -31.597,12.818 -32.805,5.881 -30.506,0 Z"
         style="fill:none;stroke:#dfb777;stroke-width:5;stroke-linecap:round;stroke-linejoin:round;stroke-miterlimit:10;stroke-dasharray:none;stroke-opacity:1"
         id="path168" />
    </g>
    <g
       id="g170"
       transform="translate(470.9756,726.6005)"
       style="stroke:#dfb777;stroke-opacity:1">
      <path
         d="m 0,0 h -78.937 c -3.018,0 -5.465,-2.447 -5.465,-5.465 0,-3.019 2.447,-5.465 5.465,-5.465 h 72.626 z"
         style="fill:none;stroke:#dfb777;stroke-width:5;stroke-linecap:round;stroke-linejoin:round;stroke-miterlimit:10;stroke-dasharray:none;stroke-opacity:1"
         id="path172" />
    </g>
    <g
       id="g174"
       transform="translate(534.1349,726.6005)"
       style="stroke:#dfb777;stroke-opacity:1">
      <path
         d="m 0,0 h -50.538 l -6.311,-10.93 H 0 c 3.018,0 5.465,2.446 5.465,5.465 C 5.465,-2.447 3.018,0 0,0 Z"
         style="fill:none;stroke:#dfb777;stroke-width:5;stroke-linecap:round;stroke-linejoin:round;stroke-miterlimit:10;stroke-dasharray:none;stroke-opacity:1"
         id="path176" />
    </g>
  </g>
</svg>
