<?xml version="1.0" encoding="UTF-8" standalone="no"?>
<!-- Created with Inkscape (http://www.inkscape.org/) -->

<svg
   version="1.1"
   id="svg1622"
   width="193.8287"
   height="150.68359"
   xmlns:inkscape="http://www.inkscape.org/namespaces/inkscape"
   xmlns:sodipodi="http://sodipodi.sourceforge.net/DTD/sodipodi-0.dtd"
   xmlns="http://www.w3.org/2000/svg"
   xmlns:svg="http://www.w3.org/2000/svg">
  <defs
     id="defs1626" />
  <sodipodi:namedview
     id="namedview1624"
     pagecolor="#ffffff"
     bordercolor="#666666"
     borderopacity="1.0"
     inkscape:pageshadow="2"
     inkscape:pageopacity="0.0"
     inkscape:pagecheckerboard="0" />
  <inkscape:clipboard
     style="font-variation-settings:normal;opacity:1;vector-effect:none;fill:#dfb777;fill-opacity:1;stroke:#dfb777;stroke-width:0.99999999;stroke-linecap:butt;stroke-linejoin:miter;stroke-miterlimit:4;stroke-dasharray:none;stroke-dashoffset:0;stroke-opacity:1;-inkscape-stroke:none;stop-color:#000000;stop-opacity:1"
     min="477.6462,509.85805"
     max="671.4749,660.54164"
     geom-min="478.1462,510.35803"
     geom-max="670.97348,660.04164" />
  <g
     id="g1628"
     transform="matrix(3.7795276,0,0,3.7795276,-477.6462,-509.85806)">
    <g
       id="g156"
       transform="matrix(0.26458333,0,0,0.26458333,75.585161,-30.482209)"
       style="fill:#dfb777;fill-opacity:1;stroke:#dfb777;stroke-opacity:1">
      <polygon
         class="st2"
         points="257.45,670.16 297.46,670.16 297.46,660.63 196.49,660.63 196.49,670.16 236.5,670.16 236.5,674.18 194.48,674.18 192.47,674.18 192.47,672.17 192.47,658.62 192.47,656.61 194.48,656.61 299.47,656.61 301.48,656.61 301.48,658.62 301.48,672.17 301.48,674.18 299.47,674.18 257.45,674.18 "
         id="polygon132"
         style="fill:#dfb777;fill-opacity:1;stroke:#dfb777;stroke-opacity:1" />
      <path
         class="st2"
         d="m 204.64,670.16 h 31.86 v 4.02 h -29.85 v 60.33 h 30.23 v 2.01 2.01 h -32.24 -2.01 v -2.01 -64.35 -2.01 z m 52.81,0 h 31.86 2.01 v 2.01 64.35 2.01 h -2.01 -32.24 v -2.01 -2.01 h 30.23 v -60.33 h -29.85 z"
         id="path134"
         style="fill:#dfb777;fill-opacity:1;stroke:#dfb777;stroke-opacity:1" />
      <path
         class="st2"
         d="m 238.51,656.61 h 16.93 2.01 v 2.01 77.9 2.01 h -2.01 -16.93 -2.01 v -2.01 -77.9 -2.01 z m 14.92,4.02 h -12.92 v 73.88 h 12.92 z"
         id="path136"
         style="fill:#dfb777;fill-opacity:1;stroke:#dfb777;stroke-opacity:1" />
      <path
         class="st2"
         d="m 222.93,656.61 c -7.09,-3.65 -12.6,-9.61 -10.97,-19.32 0.77,-4.56 2.89,-7.67 5.77,-9.56 2.44,-1.6 5.38,-2.27 8.46,-2.15 2.98,0.11 6.09,0.96 8.97,2.42 5.4,2.72 10.1,7.58 11.78,13.72 0.87,3.19 1.34,6.37 1.59,9.52 0.14,1.77 0.22,3.57 0.26,5.36 H 245 c -0.05,-1.66 -0.12,-3.34 -0.26,-5.06 -0.24,-2.97 -0.66,-5.93 -1.45,-8.82 -1.38,-5.03 -5.3,-9.05 -9.83,-11.33 -2.41,-1.21 -4.98,-1.92 -7.4,-2.02 -2.32,-0.09 -4.49,0.39 -6.25,1.54 -2.02,1.32 -3.53,3.6 -4.1,7 -1.88,11.19 8.71,16.34 18.08,18.69 h -10.86 z"
         id="path138"
         style="fill:#dfb777;fill-opacity:1;stroke:#dfb777;stroke-opacity:1" />
      <path
         class="st2"
         d="m 260.16,656.61 c 9.37,-2.35 19.96,-7.5 18.08,-18.69 -0.57,-3.4 -2.08,-5.68 -4.1,-7 -1.75,-1.15 -3.93,-1.63 -6.25,-1.54 -2.42,0.09 -4.99,0.8 -7.4,2.02 -4.53,2.28 -8.46,6.3 -9.83,11.33 -0.79,2.89 -1.22,5.85 -1.45,8.82 -0.14,1.72 -0.21,3.41 -0.26,5.06 h -3.79 c 0.05,-1.8 0.12,-3.59 0.26,-5.36 0.25,-3.14 0.71,-6.33 1.59,-9.52 1.68,-6.14 6.38,-11.01 11.78,-13.72 2.89,-1.45 6,-2.3 8.97,-2.42 3.08,-0.12 6.02,0.55 8.46,2.15 2.88,1.88 5,5 5.77,9.56 1.63,9.71 -3.88,15.66 -10.97,19.32 h -10.86 z"
         id="path140"
         style="fill:#dfb777;fill-opacity:1;stroke:#dfb777;stroke-opacity:1" />
      <path
         class="st2"
         d="m 311.42,654.87 h 35.65 1.15 1.08 l 0.6,0.91 28.61,43.76 0.33,1.1 v 0.93 37.64 h 2.31 l 0.2,0.01 0.6,0.05 c 2.79,0.23 3.03,0.25 3.31,3.52 l 0.01,0.16 v 5.19 c 0,0.45 0.01,0.63 0.01,0.78 0.04,1.01 0.07,1.53 -0.63,2.26 h -0.01 c -0.71,0.74 -1.23,0.74 -2.32,0.75 -0.18,0 -0.4,0 -0.72,0.01 v 0 c -4.38,0.15 -15.89,0.22 -28.37,0.24 -0.37,-1.38 -0.88,-2.72 -1.52,-4 12.8,-0.02 24.84,-0.08 29.53,-0.23 v -4.72 l -0.23,-0.02 -4.19,-0.01 h -2.01 v -2 -39.64 -0.34 l -27.69,-42.35 h -0.07 -35.65 c -0.23,0 -0.44,0.09 -0.59,0.24 v 0 c -0.15,0.15 -0.25,0.36 -0.25,0.59 v 87.6 c 0,0.23 0.09,0.44 0.24,0.59 l 0.01,0.01 c 0.15,0.15 0.36,0.24 0.59,0.24 1.25,0 1.68,0 1.85,0 -0.64,1.28 -1.15,2.63 -1.53,4.02 h -0.32 c -1.33,0 -2.54,-0.55 -3.42,-1.42 l -0.01,-0.01 c -0.88,-0.88 -1.42,-2.09 -1.42,-3.42 v -87.6 c 0,-1.34 0.55,-2.55 1.42,-3.43 h 0.01 c 0.89,-0.86 2.1,-1.41 3.44,-1.41 z"
         id="path142"
         style="fill:#dfb777;fill-opacity:1;stroke:#dfb777;stroke-opacity:1" />
      <path
         class="st2"
         d="M 311.73,752.18 H 259.9 c -0.37,-1.39 -0.89,-2.73 -1.53,-4.02 h 54.89 c -0.64,1.28 -1.15,2.63 -1.53,4.02 z m -93.32,0 H 194.8 v -4.02 h 25.14 c -0.64,1.28 -1.15,2.63 -1.53,4.02 z"
         id="path144"
         style="fill:#dfb777;fill-opacity:1;stroke:#dfb777;stroke-opacity:1" />
      <path
         class="st2"
         d="m 320.69,666.25 h 20.22 1.06 l 0.6,0.89 21.14,31.25 0.11,0.19 c 0.01,0.02 4.04,7.53 -4.39,8.09 -5.15,0.34 -35.95,0.19 -38.22,0.18 -0.75,0.05 -3.72,-0.05 -4,-4.46 -0.17,-2.72 -0.02,-28.11 0,-30.58 -0.05,-0.32 -0.14,-1.11 -0.09,-2 0.11,-1.74 0.8,-3.84 3.57,-3.56 z m 19.16,4.02 h -18.56 -0.08 c -0.22,10.12 -0.62,21.99 0,31.88 0.04,0.63 -0.42,0.71 -0.43,0.71 l 0.31,-0.02 c 0.09,0 32.75,0.18 38.08,-0.18 1.95,-0.13 1.34,-1.73 1.16,-2.13 z"
         id="path146"
         style="fill:#dfb777;fill-opacity:1;stroke:#dfb777;stroke-opacity:1" />
      <path
         class="st2"
         d="m 239.16,740.31 c 4.82,0 9.19,1.96 12.35,5.12 3.16,3.16 5.12,7.53 5.12,12.35 0,4.82 -1.96,9.19 -5.12,12.35 -3.16,3.16 -7.53,5.12 -12.35,5.12 -4.82,0 -9.19,-1.96 -12.35,-5.12 -3.16,-3.16 -5.12,-7.53 -5.12,-12.35 0,-4.82 1.96,-9.19 5.12,-12.35 3.16,-3.16 7.53,-5.12 12.35,-5.12 z m 9.51,7.96 c -2.43,-2.43 -5.8,-3.94 -9.51,-3.94 -3.71,0 -7.08,1.51 -9.51,3.94 -2.43,2.43 -3.94,5.8 -3.94,9.51 0,3.71 1.51,7.08 3.94,9.51 2.43,2.43 5.8,3.94 9.51,3.94 3.71,0 7.08,-1.51 9.51,-3.94 2.43,-2.43 3.94,-5.8 3.94,-9.51 0,-3.71 -1.51,-7.08 -3.94,-9.51 z"
         id="path148"
         style="fill:#dfb777;fill-opacity:1;stroke:#dfb777;stroke-opacity:1" />
      <path
         class="st2"
         d="m 332.48,740.31 c 4.82,0 9.19,1.96 12.35,5.12 3.16,3.16 5.12,7.53 5.12,12.35 0,4.82 -1.96,9.19 -5.12,12.35 -3.16,3.16 -7.53,5.12 -12.35,5.12 -4.82,0 -9.19,-1.96 -12.35,-5.12 -3.16,-3.16 -5.12,-7.53 -5.12,-12.35 0,-4.82 1.96,-9.19 5.12,-12.35 3.16,-3.16 7.53,-5.12 12.35,-5.12 z m 9.51,7.96 c -2.43,-2.43 -5.8,-3.94 -9.51,-3.94 -3.71,0 -7.08,1.51 -9.51,3.94 -2.43,2.43 -3.94,5.8 -3.94,9.51 0,3.71 1.51,7.08 3.94,9.51 2.43,2.43 5.8,3.94 9.51,3.94 3.71,0 7.08,-1.51 9.51,-3.94 2.43,-2.43 3.94,-5.8 3.94,-9.51 0,-3.71 -1.51,-7.08 -3.94,-9.51 z"
         id="path150"
         style="fill:#dfb777;fill-opacity:1;stroke:#dfb777;stroke-opacity:1" />
      <path
         class="st2"
         d="m 239.16,751.9 c 1.62,0 3.1,0.66 4.16,1.72 1.06,1.06 1.72,2.54 1.72,4.16 0,1.62 -0.66,3.1 -1.72,4.16 -1.06,1.06 -2.54,1.72 -4.16,1.72 -1.62,0 -3.1,-0.66 -4.16,-1.72 -1.06,-1.06 -1.72,-2.54 -1.72,-4.16 0,-1.62 0.66,-3.1 1.72,-4.16 1.06,-1.06 2.53,-1.72 4.16,-1.72 z m 1.32,4.56 c -0.34,-0.34 -0.8,-0.55 -1.32,-0.55 -0.52,0 -0.98,0.21 -1.32,0.55 -0.34,0.34 -0.55,0.8 -0.55,1.32 0,0.52 0.21,0.98 0.55,1.32 0.34,0.34 0.8,0.55 1.32,0.55 0.52,0 0.98,-0.21 1.32,-0.55 0.34,-0.34 0.55,-0.8 0.55,-1.32 -0.01,-0.52 -0.22,-0.98 -0.55,-1.32 z"
         id="path152"
         style="fill:#dfb777;fill-opacity:1;stroke:#dfb777;stroke-opacity:1" />
      <path
         class="st2"
         d="m 332.48,751.9 c 1.62,0 3.1,0.66 4.16,1.72 1.06,1.06 1.72,2.54 1.72,4.16 0,1.62 -0.66,3.1 -1.72,4.16 -1.06,1.06 -2.54,1.72 -4.16,1.72 -1.62,0 -3.1,-0.66 -4.16,-1.72 -1.06,-1.06 -1.72,-2.54 -1.72,-4.16 0,-1.62 0.66,-3.1 1.72,-4.16 1.06,-1.06 2.53,-1.72 4.16,-1.72 z m 1.32,4.56 c -0.34,-0.34 -0.8,-0.55 -1.32,-0.55 -0.52,0 -0.98,0.21 -1.32,0.55 -0.34,0.34 -0.55,0.8 -0.55,1.32 0,0.52 0.21,0.98 0.55,1.32 0.34,0.34 0.8,0.55 1.32,0.55 0.52,0 0.98,-0.21 1.32,-0.55 0.34,-0.34 0.55,-0.8 0.55,-1.32 -0.01,-0.52 -0.21,-0.98 -0.55,-1.32 z"
         id="path154"
         style="fill:#dfb777;fill-opacity:1;stroke:#dfb777;stroke-opacity:1" />
    </g>
  </g>
</svg>
