<?xml version="1.0" encoding="UTF-8" standalone="no"?>
<!-- Created with Inkscape (http://www.inkscape.org/) -->

<svg
   version="1.1"
   id="svg1857"
   width="196.23334"
   height="199.55867"
   xmlns:inkscape="http://www.inkscape.org/namespaces/inkscape"
   xmlns:sodipodi="http://sodipodi.sourceforge.net/DTD/sodipodi-0.dtd"
   xmlns="http://www.w3.org/2000/svg"
   xmlns:svg="http://www.w3.org/2000/svg">
  <defs
     id="defs1861">
    <clipPath
       clipPathUnits="userSpaceOnUse"
       id="clipPath18">
      <path
         d="M 359.408,228.584 H 506.583 V 378.253 H 359.408 Z"
         id="path16" />
    </clipPath>
  </defs>
  <sodipodi:namedview
     id="namedview1859"
     pagecolor="#ffffff"
     bordercolor="#666666"
     borderopacity="1.0"
     inkscape:pageshadow="2"
     inkscape:pageopacity="0.0"
     inkscape:pagecheckerboard="0" />
  <inkscape:clipboard
     style="font-variation-settings:normal;opacity:1;vector-effect:none;fill:#dfb777;fill-opacity:1;stroke:#dfb777;stroke-width:1.3333333;stroke-linecap:butt;stroke-linejoin:miter;stroke-miterlimit:4;stroke-dasharray:none;stroke-dashoffset:0;stroke-opacity:1;-inkscape-stroke:none;stop-color:#000000;stop-opacity:1"
     min="442.84282,558.87844"
     max="639.07615,758.4371"
     geom-min="442.83845,558.93351"
     geom-max="639.06102,758.44173" />
  <g
     id="g1865"
     transform="matrix(3.7795276,0,0,3.7795276,-442.84283,-558.87844)">
    <g
       id="g14"
       clip-path="url(#clipPath18)"
       transform="matrix(0.35277777,0,0,-0.35277777,-9.6223228,281.30917)"
       style="fill:#dfb777;fill-opacity:1;stroke:#dfb777;stroke-opacity:1">
      <g
         id="g20"
         transform="translate(367.9244,261.0122)"
         style="fill:#dfb777;fill-opacity:1;stroke:#dfb777;stroke-opacity:1">
        <path
           d="m 0,0 h 21.739 c -3.05,-4.151 -6.712,-7.815 -10.873,-10.864 z m 12.218,13.914 c -2.874,1.734 -3.098,5.827 -0.417,7.863 2.679,2.028 6.566,0.713 7.454,-2.532 l 3.108,-11.42 z m 11.694,-37.826 -2.749,2.749 c 1.033,1.569 1.951,3.205 2.749,4.899 z m -6.383,6.383 -3.059,3.058 c 2.622,1.959 5.047,4.161 7.269,6.578 -1.002,-3.382 -2.407,-6.615 -4.21,-9.636 m 23.66,120.524 C 47.063,98.911 52.344,94.03 56.877,88.497 68.159,74.473 71.375,59.214 66.426,43.137 59.049,19.158 38.567,7.853 29.779,3.996 l -0.371,0.115 z m 15.151,1.404 c 0,1.158 1.14,1.986 2.24,1.617 10.126,-3.313 19.46,-8.644 27.44,-15.678 -1.208,-2.437 -1.938,-5.077 -2.143,-7.786 -8.526,7.259 -17.753,13.66 -27.537,19.098 z m 14.967,6.663 3.176,-3.437 c -1.05,-0.479 -2.113,-0.946 -3.146,-1.462 -1.052,0.516 -2.095,1.032 -3.168,1.509 z m 12.727,-5.046 c 1.1,0.369 2.24,-0.459 2.24,-1.617 v -7.788 c -3.011,2.408 -6.179,4.6 -9.481,6.578 2.367,1.063 4.774,2.008 7.241,2.827 M 127.695,12.385 40.585,3.889 C 55.151,12.218 66.074,25.696 71.2,41.675 78.469,65.306 68.169,83.585 57.578,95.16 89.607,76.256 114.317,47.083 127.695,12.385 m -34.209,79.961 8.828,8.828 c 0.456,0.456 1.11,0.671 1.743,0.584 0.644,-0.098 1.208,-0.487 1.51,-1.063 l 5.632,-10.445 c 1.814,-3.352 2.924,-7.046 3.265,-10.846 0.41,-3.809 -1.022,-7.58 -3.859,-10.152 -2.679,-2.457 -6.286,-3.635 -9.9,-3.225 -3.682,4.14 -7.561,8.107 -11.644,11.876 -1.013,5.253 0.643,10.661 4.425,14.443 m 25.217,2.444 v -4.851 l -2.465,1.324 c -0.215,0.449 -0.409,0.906 -0.644,1.355 l -1.169,2.172 z m 4.841,-13.126 c 1.21,-0.651 1.445,-2.29 0.479,-3.262 l -5.3,-5.311 c 0.671,2.183 0.915,4.473 0.71,6.752 -0.147,1.49 -0.399,2.961 -0.75,4.413 z m 2.273,-19.302 c 1.157,0 1.978,-1.13 1.626,-2.232 -2.125,-6.441 -5.076,-12.58 -8.79,-18.26 -3.867,6.303 -8.145,12.345 -12.802,18.085 2.776,0.264 5.475,1.083 7.93,2.407 z m 1.382,-29.233 c -0.322,-0.439 -0.838,-0.701 -1.382,-0.701 h -1.804 c -0.828,1.569 -1.656,3.138 -2.534,4.677 1.093,1.589 2.145,3.186 3.118,4.832 1.073,-2.367 2.018,-4.792 2.836,-7.269 0.175,-0.516 0.088,-1.09 -0.234,-1.539 m 1.843,17.442 3.438,-3.176 -3.438,-3.175 c -0.479,1.05 -0.955,2.113 -1.472,3.145 0.527,1.053 0.993,2.136 1.472,3.206 m -84.54,-56.74 c 3.577,-1.187 4.831,-5.603 2.417,-8.486 -2.417,-2.894 -6.987,-2.437 -8.791,0.868 l -6.431,11.789 0.215,0.03 z M 14.538,-21.592 c -2.787,-3.226 -6.665,-5.311 -10.894,-5.867 l 0.624,-4.949 c 5.341,0.661 10.25,3.245 13.827,7.259 l 6.548,-6.548 c 1.569,-1.569 4.258,-0.459 4.258,1.763 v 22.645 l 4.842,-8.885 c 1.629,-2.984 4.61,-4.972 7.992,-5.321 0.349,-0.04 0.711,-0.06 1.07,-0.06 3.021,-0.01 5.887,1.307 7.855,3.597 4.765,5.563 2.378,14.196 -4.579,16.516 l -1.959,0.654 87.307,8.516 c 1.627,0.155 2.66,1.811 2.093,3.342 l -0.506,1.345 c -1.908,5.154 -4.081,10.19 -6.478,15.102 4.228,0.419 6.977,4.649 5.63,8.683 -0.329,1.043 -0.759,2.055 -1.14,3.078 l 6.822,6.286 c 1.063,0.983 1.063,2.679 0,3.662 l -6.812,6.286 c 0.381,1.023 0.801,2.036 1.13,3.068 1.414,4.328 -1.811,8.761 -6.351,8.771 h -5.79 l 7.524,7.523 c 3.332,3.341 2.514,8.946 -1.647,11.186 l -2.32,1.247 h 0.108 v 9.978 c 0,1.374 -1.12,2.494 -2.495,2.494 h -9.462 l -1.763,3.283 c -2.24,4.151 -7.845,4.979 -11.185,1.639 l -7.524,-7.523 v 7.221 c -0.01,4.54 -4.443,7.756 -8.76,6.351 -1.043,-0.329 -2.056,-0.738 -3.079,-1.13 l -6.286,6.813 c -1.002,1.022 -2.659,1.022 -3.662,0 L 63.22,109.66 c -1.023,0.379 -2.055,0.761 -3.098,1.1 -4.328,1.415 -8.771,-1.811 -8.771,-6.361 v -0.127 c -3.664,1.881 -7.386,3.672 -11.195,5.291 h -0.08 c -0.319,0.127 -0.661,0.184 -1.002,0.164 h -0.128 c -0.311,-0.027 -0.613,-0.107 -0.895,-0.242 -0.03,-0.019 -0.058,-0.049 -0.087,-0.059 -0.03,-0.02 -0.03,0 -0.04,0 -0.01,0 -0.038,-0.038 -0.058,-0.058 -0.292,-0.184 -0.556,-0.429 -0.751,-0.711 0,-0.03 -0.02,-0.05 -0.03,-0.07 -0.204,-0.311 -0.331,-0.661 -0.379,-1.032 L 25.656,14.742 24.077,20.55 C 22.256,27.205 14.296,29.914 8.798,25.753 3.293,21.592 3.752,13.183 9.666,9.636 L 17.404,4.989 H -6.022 C -8.244,4.989 -9.354,2.3 -7.785,0.731 L 6.501,-13.555 c -4.6,-2.532 -9.766,-3.877 -15.017,-3.906 v -4.989 c 6.598,0.02 13.056,1.813 18.728,5.183 z"
           style="fill:#dfb777;fill-opacity:1;fill-rule:nonzero;stroke:#dfb777;stroke-opacity:1"
           id="path22" />
      </g>
      <g
         id="g24"
         transform="translate(367.9244,261.0122)"
         style="fill:#dfb777;fill-opacity:1;stroke:#dfb777;stroke-opacity:1">
        <path
           d="m 0,0 h 21.739 c -3.05,-4.151 -6.712,-7.815 -10.873,-10.864 z m 12.218,13.914 c -2.874,1.734 -3.098,5.827 -0.417,7.863 2.679,2.028 6.566,0.713 7.454,-2.532 l 3.108,-11.42 z m 11.694,-37.826 -2.749,2.749 c 1.033,1.569 1.951,3.205 2.749,4.899 z m -6.383,6.383 -3.059,3.058 c 2.622,1.959 5.047,4.161 7.269,6.578 -1.002,-3.382 -2.407,-6.615 -4.21,-9.636 z m 23.66,120.524 C 47.063,98.911 52.344,94.03 56.877,88.497 68.159,74.473 71.375,59.214 66.426,43.137 59.049,19.158 38.567,7.853 29.779,3.996 l -0.371,0.115 z m 15.151,1.404 c 0,1.158 1.14,1.986 2.24,1.617 10.126,-3.313 19.46,-8.644 27.44,-15.678 -1.208,-2.437 -1.938,-5.077 -2.143,-7.786 -8.526,7.259 -17.753,13.66 -27.537,19.098 z m 14.967,6.663 3.176,-3.437 c -1.05,-0.479 -2.113,-0.946 -3.146,-1.462 -1.052,0.516 -2.095,1.032 -3.168,1.509 z m 12.727,-5.046 c 1.1,0.369 2.24,-0.459 2.24,-1.617 v -7.788 c -3.011,2.408 -6.179,4.6 -9.481,6.578 2.367,1.063 4.774,2.008 7.241,2.827 z M 127.695,12.385 40.585,3.889 C 55.151,12.218 66.074,25.696 71.2,41.675 78.469,65.306 68.169,83.585 57.578,95.16 89.607,76.256 114.317,47.083 127.695,12.385 Z m -34.209,79.961 8.828,8.828 c 0.456,0.456 1.11,0.671 1.743,0.584 0.644,-0.098 1.208,-0.487 1.51,-1.063 l 5.632,-10.445 c 1.814,-3.352 2.924,-7.046 3.265,-10.846 0.41,-3.809 -1.022,-7.58 -3.859,-10.152 -2.679,-2.457 -6.286,-3.635 -9.9,-3.225 -3.682,4.14 -7.561,8.107 -11.644,11.876 -1.013,5.253 0.643,10.661 4.425,14.443 z m 25.217,2.444 v -4.851 l -2.465,1.324 c -0.215,0.449 -0.409,0.906 -0.644,1.355 l -1.169,2.172 z m 4.841,-13.126 c 1.21,-0.651 1.445,-2.29 0.479,-3.262 l -5.3,-5.311 c 0.671,2.183 0.915,4.473 0.71,6.752 -0.147,1.49 -0.399,2.961 -0.75,4.413 z m 2.273,-19.302 c 1.157,0 1.978,-1.13 1.626,-2.232 -2.125,-6.441 -5.076,-12.58 -8.79,-18.26 -3.867,6.303 -8.145,12.345 -12.802,18.085 2.776,0.264 5.475,1.083 7.93,2.407 z m 1.382,-29.233 c -0.322,-0.439 -0.838,-0.701 -1.382,-0.701 h -1.804 c -0.828,1.569 -1.656,3.138 -2.534,4.677 1.093,1.589 2.145,3.186 3.118,4.832 1.073,-2.367 2.018,-4.792 2.836,-7.269 0.175,-0.516 0.088,-1.09 -0.234,-1.539 z m 1.843,17.442 3.438,-3.176 -3.438,-3.175 c -0.479,1.05 -0.955,2.113 -1.472,3.145 0.527,1.053 0.993,2.136 1.472,3.206 z m -84.54,-56.74 c 3.577,-1.187 4.831,-5.603 2.417,-8.486 -2.417,-2.894 -6.987,-2.437 -8.791,0.868 l -6.431,11.789 0.215,0.03 z M 14.538,-21.592 c -2.787,-3.226 -6.665,-5.311 -10.894,-5.867 l 0.624,-4.949 c 5.341,0.661 10.25,3.245 13.827,7.259 l 6.548,-6.548 c 1.569,-1.569 4.258,-0.459 4.258,1.763 v 22.645 l 4.842,-8.885 c 1.629,-2.984 4.61,-4.972 7.992,-5.321 0.349,-0.04 0.711,-0.06 1.07,-0.06 3.021,-0.01 5.887,1.307 7.855,3.597 4.765,5.563 2.378,14.196 -4.579,16.516 l -1.959,0.654 87.307,8.516 c 1.627,0.155 2.66,1.811 2.093,3.342 l -0.506,1.345 c -1.908,5.154 -4.081,10.19 -6.478,15.102 4.228,0.419 6.977,4.649 5.63,8.683 -0.329,1.043 -0.759,2.055 -1.14,3.078 l 6.822,6.286 c 1.063,0.983 1.063,2.679 0,3.662 l -6.812,6.286 c 0.381,1.023 0.801,2.036 1.13,3.068 1.414,4.328 -1.811,8.761 -6.351,8.771 h -5.79 l 7.524,7.523 c 3.332,3.341 2.514,8.946 -1.647,11.186 l -2.32,1.247 h 0.108 v 9.978 c 0,1.374 -1.12,2.494 -2.495,2.494 h -9.462 l -1.763,3.283 c -2.24,4.151 -7.845,4.979 -11.185,1.639 l -7.524,-7.523 v 7.221 c -0.01,4.54 -4.443,7.756 -8.76,6.351 -1.043,-0.329 -2.056,-0.738 -3.079,-1.13 l -6.286,6.813 c -1.002,1.022 -2.659,1.022 -3.662,0 L 63.22,109.66 c -1.023,0.379 -2.055,0.761 -3.098,1.1 -4.328,1.415 -8.771,-1.811 -8.771,-6.361 v -0.127 c -3.664,1.881 -7.386,3.672 -11.195,5.291 h -0.08 c -0.319,0.127 -0.661,0.184 -1.002,0.164 h -0.128 c -0.311,-0.027 -0.613,-0.107 -0.895,-0.242 -0.03,-0.019 -0.058,-0.049 -0.087,-0.059 -0.03,-0.02 -0.03,0 -0.04,0 -0.01,0 -0.038,-0.038 -0.058,-0.058 -0.292,-0.184 -0.556,-0.429 -0.751,-0.711 0,-0.03 -0.02,-0.05 -0.03,-0.07 -0.204,-0.311 -0.331,-0.661 -0.379,-1.032 L 25.656,14.742 24.077,20.55 C 22.256,27.205 14.296,29.914 8.798,25.753 3.293,21.592 3.752,13.183 9.666,9.636 L 17.404,4.989 H -6.022 C -8.244,4.989 -9.354,2.3 -7.785,0.731 L 6.501,-13.555 c -4.6,-2.532 -9.766,-3.877 -15.017,-3.906 v -4.989 c 6.598,0.02 13.056,1.813 18.728,5.183 z"
           style="fill:#dfb777;fill-opacity:1;stroke:#dfb777;stroke-width:0.25;stroke-linecap:butt;stroke-linejoin:miter;stroke-miterlimit:10;stroke-dasharray:none;stroke-opacity:1"
           id="path26" />
      </g>
    </g>
  </g>
</svg>
