<?xml version="1.0" encoding="UTF-8" standalone="no"?>
<!-- Created with Inkscape (http://www.inkscape.org/) -->

<svg
   version="1.1"
   id="svg1019"
   width="135.00999"
   height="152.19908"
   xmlns:inkscape="http://www.inkscape.org/namespaces/inkscape"
   xmlns:sodipodi="http://sodipodi.sourceforge.net/DTD/sodipodi-0.dtd"
   xmlns="http://www.w3.org/2000/svg"
   xmlns:svg="http://www.w3.org/2000/svg">
  <defs
     id="defs1023" />
  <sodipodi:namedview
     id="namedview1021"
     pagecolor="#ffffff"
     bordercolor="#666666"
     borderopacity="1.0"
     inkscape:pageshadow="2"
     inkscape:pageopacity="0.0"
     inkscape:pagecheckerboard="0" />
  <inkscape:clipboard
     style="font-variation-settings:normal;opacity:1;vector-effect:none;fill:#000000;fill-opacity:1;stroke-width:1;stroke-linecap:butt;stroke-linejoin:miter;stroke-miterlimit:4;stroke-dasharray:none;stroke-dashoffset:0;stroke-opacity:1;-inkscape-stroke:none;stop-color:#000000;stop-opacity:1"
     min="417.78,626.93092"
     max="552.79,779.13"
     geom-min="417.78,626.93092"
     geom-max="552.79,779.13" />
  <g
     id="g1025"
     transform="translate(-417.78,-626.93092)">
    <g
       id="g130">
	<path
   d="m 441.73,775 h -17.76 c -3.41,0 -6.19,-2.78 -6.19,-6.19 v -41.47 c 0,-3.41 2.78,-6.19 6.19,-6.19 h 17.76 c 3.41,0 6.19,2.78 6.19,6.19 v 41.47 c -0.01,3.42 -2.78,6.19 -6.19,6.19 z m -17.77,-49.35 c -0.93,0 -1.69,0.76 -1.69,1.69 v 41.47 c 0,0.93 0.76,1.69 1.69,1.69 h 17.76 c 0.93,0 1.69,-0.76 1.69,-1.69 v -41.47 c 0,-0.93 -0.76,-1.69 -1.69,-1.69 z"
   id="path112" />

	<path
   d="m 514.67,750.91 h -4.5 v -2.52 c 0,-3.93 -3.2,-7.13 -7.13,-7.13 h -12.36 c -4.69,0 -9.25,-0.93 -13.56,-2.77 l -3.7,-1.58 c -3.75,-1.6 -7.72,-2.41 -11.8,-2.41 H 445.67 V 730 h 15.95 c 4.69,0 9.25,0.93 13.56,2.77 l 3.7,1.58 c 3.75,1.6 7.72,2.41 11.8,2.41 h 12.36 c 6.41,0 11.63,5.22 11.63,11.63 z"
   id="path114" />

	<path
   d="m 492.37,779.13 c -2.7,0 -5.39,-0.51 -7.91,-1.52 l -22.88,-9.18 c -1.89,-0.76 -3.89,-1.14 -5.93,-1.14 h -9.99 v -4.5 h 9.99 c 2.62,0 5.17,0.49 7.6,1.47 l 22.88,9.18 c 3.44,1.38 7.3,1.58 10.87,0.55 1.41,-0.41 2.75,-1 4.01,-1.75 l 42.32,-25.45 c 2.15,-1.29 2.94,-4.05 1.8,-6.28 -0.6,-1.18 -1.63,-2.03 -2.9,-2.41 -1.27,-0.38 -2.6,-0.22 -3.75,0.44 l -25.8,14.84 c -3.34,1.92 -7.14,2.93 -10.99,2.93 h -22.73 c -1.24,0 -2.25,-1.01 -2.25,-2.25 v 0 c 0,-1.24 1.01,-2.25 2.25,-2.25 h 22.73 c 3.06,0 6.09,-0.81 8.74,-2.34 l 25.8,-14.83 c 2.22,-1.28 4.8,-1.59 7.27,-0.86 2.46,0.73 4.46,2.39 5.63,4.67 2.22,4.33 0.68,9.68 -3.49,12.19 l -42.31,25.45 c -1.59,0.96 -3.3,1.71 -5.08,2.22 -1.92,0.55 -3.9,0.82 -5.88,0.82 z"
   id="path116" />

	<polygon
   points="538.62,685.73 457.88,685.73 457.88,731.89 453.38,731.89 453.38,681.23 543.12,681.23 543.12,736.02 538.62,736.02 "
   id="polygon118" />

	<path
   d="m 546.93,685.73 h -97.36 c -3.23,0 -5.86,-2.63 -5.86,-5.86 v -9.67 c 0,-3.23 2.63,-5.86 5.86,-5.86 h 97.36 c 3.23,0 5.86,2.63 5.86,5.86 v 9.67 c 0,3.23 -2.63,5.86 -5.86,5.86 z m -97.36,-16.88 c -0.75,0 -1.36,0.61 -1.36,1.36 v 9.67 c 0,0.75 0.61,1.36 1.36,1.36 h 97.36 c 0.75,0 1.36,-0.61 1.36,-1.36 v -9.67 c 0,-0.75 -0.61,-1.36 -1.36,-1.36 z"
   id="path120" />

	<rect
   x="487.66"
   y="683.47998"
   width="4.5"
   height="55.509998"
   id="rect122" />

	<rect
   x="504.34"
   y="683.47998"
   width="4.5"
   height="55.509998"
   id="rect124" />

	<path
   d="m 498.79,668.85 c -0.34,0 -0.54,0 -0.58,0 l -2.17,-0.04 -0.04,-2.17 c 0,-0.24 -0.1,-5.97 0.91,-12.88 1.39,-9.52 4.11,-16.37 8.1,-20.36 4.58,-4.58 9.41,-6.75 14.33,-6.44 4.26,0.27 8.39,2.38 12.28,6.26 3.89,3.89 5.99,8.02 6.26,12.28 0.31,4.92 -1.85,9.74 -6.44,14.33 -3.99,3.99 -10.84,6.72 -20.36,8.1 -5.72,0.84 -10.64,0.92 -12.29,0.92 z m 19.64,-37.42 c -3.38,0 -6.82,1.73 -10.24,5.15 -6.48,6.48 -7.51,21.95 -7.67,27.73 5.79,-0.16 21.27,-1.2 27.74,-7.67 3.63,-3.63 5.36,-7.29 5.13,-10.86 -0.2,-3.13 -1.87,-6.29 -4.96,-9.38 -3.09,-3.09 -6.25,-4.76 -9.38,-4.96 -0.2,0 -0.41,-0.01 -0.62,-0.01 z"
   id="path126" />

	<path
   d="m 497.71,668.85 c -1.65,0 -6.57,-0.08 -12.29,-0.91 -9.52,-1.39 -16.37,-4.11 -20.36,-8.1 -4.58,-4.58 -6.75,-9.41 -6.44,-14.33 0.27,-4.26 2.38,-8.39 6.26,-12.28 3.89,-3.89 8.02,-5.99 12.28,-6.26 4.92,-0.31 9.74,1.85 14.33,6.44 3.99,3.99 6.72,10.84 8.1,20.36 1.01,6.91 0.91,12.63 0.91,12.88 l -0.04,2.17 -2.17,0.04 c -0.04,-0.02 -0.24,-0.01 -0.58,-0.01 z m -19.64,-37.42 c -0.21,0 -0.42,0.01 -0.62,0.02 -3.13,0.2 -6.29,1.87 -9.38,4.96 -3.09,3.09 -4.76,6.25 -4.96,9.38 -0.23,3.58 1.5,7.23 5.13,10.86 6.48,6.48 21.95,7.51 27.73,7.67 -0.16,-5.79 -1.2,-21.27 -7.67,-27.74 -3.42,-3.42 -6.86,-5.15 -10.23,-5.15 z"
   id="path128" />

</g>
  </g>
</svg>
