<?xml version="1.0" encoding="UTF-8" standalone="no"?>
<!-- Created with Inkscape (http://www.inkscape.org/) -->

<svg
   version="1.1"
   id="svg611"
   width="87.86908"
   height="82.199997"
   xmlns:inkscape="http://www.inkscape.org/namespaces/inkscape"
   xmlns:sodipodi="http://sodipodi.sourceforge.net/DTD/sodipodi-0.dtd"
   xmlns="http://www.w3.org/2000/svg"
   xmlns:svg="http://www.w3.org/2000/svg">
  <defs
     id="defs615" />
  <sodipodi:namedview
     id="namedview613"
     pagecolor="#ffffff"
     bordercolor="#666666"
     borderopacity="1.0"
     inkscape:pageshadow="2"
     inkscape:pageopacity="0.0"
     inkscape:pagecheckerboard="0" />
  <inkscape:clipboard
     style="font-variation-settings:normal;opacity:1;vector-effect:none;fill:#000000;fill-opacity:1;stroke-width:1;stroke-linecap:butt;stroke-linejoin:miter;stroke-miterlimit:4;stroke-dasharray:none;stroke-dashoffset:0;stroke-opacity:1;-inkscape-stroke:none;stop-color:#000000;stop-opacity:1"
     min="38.61492,497.37"
     max="126.484,579.57"
     geom-min="38.61492,497.37"
     geom-max="126.484,579.57" />
  <g
     id="g617"
     transform="translate(-38.61492,-497.37)">
    <g
       id="g48">
	<path
   d="m 100.62,497.82 c -5.97,0 -12.27,2.26 -18.07,7.4 -5.8,-5.14 -12.1,-7.4 -18.07,-7.4 -26.97,0 -46.99,46.17 18.07,81.25 65.05,-35.07 45.03,-81.25 18.07,-81.25 z m 15.44,47.28 c -3.17,5.21 -7.57,10.31 -13.08,15.16 -5.66,4.99 -12.53,9.75 -20.43,14.15 C 74.64,570 67.77,565.24 62.11,560.25 56.6,555.4 52.2,550.29 49.03,545.09 c -2.83,-4.64 -4.67,-9.35 -5.48,-13.99 -0.73,-4.17 -0.61,-8.2 0.35,-11.99 1.28,-5.06 3.97,-9.4 7.79,-12.53 3.73,-3.06 8.15,-4.68 12.79,-4.68 0,0 0,0 0,0 5.35,0 10.66,2.2 15.36,6.37 l 2.71,2.4 2.71,-2.4 c 4.7,-4.17 10.01,-6.37 15.36,-6.37 4.64,0 9.07,1.62 12.79,4.68 3.82,3.14 6.51,7.47 7.79,12.54 0.96,3.79 1.07,7.82 0.34,11.99 -0.8,4.63 -2.65,9.34 -5.48,13.99 z"
   id="path44" />

	<path
   d="m 82.55,579.57 -0.21,-0.11 C 34.68,553.77 37.51,525.93 39.51,518 c 3.07,-12.15 13.34,-20.63 24.97,-20.63 0,0 0,0 0,0 6.36,0 12.59,2.51 18.07,7.25 5.47,-4.75 11.71,-7.25 18.07,-7.25 11.64,0 21.91,8.49 24.97,20.64 2,7.92 4.82,35.77 -42.83,61.45 z m -18.07,-81.3 c -11.23,0 -21.14,8.21 -24.1,19.96 -1.96,7.75 -4.68,34.98 42.17,60.33 46.85,-25.34 44.13,-52.58 42.17,-60.33 -2.97,-11.75 -12.88,-19.96 -24.11,-19.96 -6.25,0 -12.39,2.52 -17.77,7.29 l -0.3,0.26 -0.3,-0.26 c -5.36,-4.77 -11.51,-7.29 -17.76,-7.29 0,0 0,0 0,0 z m 18.07,76.66 -0.22,-0.12 C 74.4,570.39 67.5,565.6 61.82,560.6 c -5.54,-4.88 -9.97,-10.02 -13.17,-15.27 -2.86,-4.69 -4.72,-9.45 -5.54,-14.15 -0.74,-4.23 -0.62,-8.32 0.35,-12.17 1.3,-5.15 4.05,-9.57 7.94,-12.77 3.81,-3.13 8.33,-4.78 13.08,-4.78 5.46,0 10.88,2.24 15.66,6.48 l 2.41,2.13 2.41,-2.13 c 4.79,-4.24 10.2,-6.48 15.66,-6.48 4.75,0 9.27,1.65 13.08,4.79 3.89,3.2 6.64,7.62 7.94,12.77 0.97,3.85 1.09,7.94 0.35,12.17 -0.82,4.7 -2.68,9.46 -5.54,14.15 v 0 c -3.2,5.25 -7.62,10.38 -13.16,15.27 -5.68,5.01 -12.58,9.79 -20.51,14.21 z M 64.48,502.35 c -4.54,0 -8.86,1.58 -12.51,4.58 -3.75,3.08 -6.39,7.33 -7.64,12.3 -0.94,3.73 -1.05,7.7 -0.34,11.8 0.8,4.59 2.62,9.24 5.42,13.84 3.15,5.17 7.52,10.24 12.99,15.06 5.58,4.92 12.35,9.62 20.14,13.98 7.78,-4.36 14.56,-9.06 20.14,-13.98 5.47,-4.82 9.84,-9.89 12.99,-15.06 v 0 c 2.8,-4.6 4.62,-9.25 5.42,-13.84 0.72,-4.1 0.6,-8.07 -0.34,-11.8 -1.25,-4.97 -3.9,-9.22 -7.64,-12.3 -3.65,-3 -7.97,-4.58 -12.51,-4.58 -5.23,0 -10.44,2.16 -15.06,6.26 l -3,2.66 -3,-2.66 c -4.61,-4.1 -9.82,-6.26 -15.06,-6.26 z"
   id="path46" />

</g>
  </g>
</svg>
