<?xml version="1.0" encoding="UTF-8" standalone="no"?>
<!-- Created with Inkscape (http://www.inkscape.org/) -->

<svg
   version="1.1"
   id="svg494"
   width="89.923332"
   height="89.989998"
   xmlns:inkscape="http://www.inkscape.org/namespaces/inkscape"
   xmlns:sodipodi="http://sodipodi.sourceforge.net/DTD/sodipodi-0.dtd"
   xmlns="http://www.w3.org/2000/svg"
   xmlns:svg="http://www.w3.org/2000/svg">
  <defs
     id="defs498" />
  <sodipodi:namedview
     id="namedview496"
     pagecolor="#ffffff"
     bordercolor="#666666"
     borderopacity="1.0"
     inkscape:pageshadow="2"
     inkscape:pageopacity="0.0"
     inkscape:pagecheckerboard="0" />
  <inkscape:clipboard
     style="font-variation-settings:normal;opacity:1;vector-effect:none;fill:#000000;fill-opacity:1;stroke-width:1;stroke-linecap:butt;stroke-linejoin:miter;stroke-miterlimit:4;stroke-dasharray:none;stroke-dashoffset:0;stroke-opacity:1;-inkscape-stroke:none;stop-color:#000000;stop-opacity:1"
     min="81.52624,262.37"
     max="171.44957,352.36"
     geom-min="81.52624,262.37"
     geom-max="171.44957,352.36" />
  <g
     id="g500"
     transform="translate(-81.52624,-262.37)">
    <g
       id="g54">
	<path
   d="m 168.03,323.53 -14.48,-10.67 c -1.26,-0.93 -2.75,-1.42 -4.3,-1.42 -1.7,0 -3.34,0.6 -4.64,1.69 l -7.43,6.28 c -0.56,0.47 -1.27,0.73 -2.01,0.73 -0.67,0 -1.31,-0.21 -1.85,-0.6 -3.79,-2.74 -7.37,-5.85 -10.65,-9.25 -2.82,-2.93 -5.44,-6.11 -7.78,-9.45 -0.82,-1.17 -0.76,-2.74 0.15,-3.82 l 6.62,-7.83 c 2.16,-2.55 2.27,-6.23 0.28,-8.94 l -10.67,-14.48 c -1.37,-1.85 -3.55,-2.96 -5.85,-2.96 -0.86,0 -1.7,0.15 -2.5,0.45 l -16.29,6.03 c -3.34,1.24 -5.27,4.81 -4.49,8.3 3.96,17.71 12.77,34.04 25.46,47.21 7.02,7.28 15.68,14.02 24.38,18.96 11.58,6.58 19.39,7.96 23.91,7.96 0.11,0 0.21,0 0.31,0 h 0.05 c 0.32,0 0.68,0.04 1.06,0.08 0.46,0.05 0.93,0.1 1.44,0.1 v 0 c 0.84,0 1.57,-0.15 2.24,-0.45 1.75,-0.78 3.14,-2.26 3.8,-4.06 l 5.74,-15.54 c 1.13,-2.98 0.09,-6.41 -2.5,-8.32 z m -1.31,6.92 -5.74,15.54 c -0.29,0.77 -0.88,1.41 -1.64,1.75 -0.15,0.06 -0.32,0.09 -0.58,0.09 v 0 c -0.29,0 -0.63,-0.04 -1,-0.08 -0.45,-0.05 -0.96,-0.11 -1.5,-0.11 h -0.11 c -0.09,0 -0.17,0 -0.26,0 -11.75,0 -31.25,-11.04 -45.35,-25.68 -12.18,-12.63 -20.62,-28.29 -24.42,-45.27 -0.34,-1.54 0.47,-3.05 1.93,-3.59 l 16.29,-6.03 c 0.35,-0.13 0.71,-0.19 1.08,-0.19 1.01,0 1.97,0.49 2.57,1.3 l 10.67,14.48 c 0.87,1.18 0.83,2.78 -0.11,3.89 l -6.62,7.83 c -2.11,2.49 -2.26,6.11 -0.38,8.8 2.46,3.51 5.21,6.85 8.19,9.94 3.44,3.57 7.21,6.85 11.2,9.72 1.25,0.9 2.71,1.38 4.25,1.38 1.7,0 3.35,-0.6 4.64,-1.69 l 7.43,-6.28 c 0.56,-0.47 1.27,-0.73 2,-0.73 0.68,0 1.33,0.21 1.88,0.62 l 14.48,10.67 c 1.13,0.84 1.59,2.34 1.1,3.64 z"
   id="path50" />

	<path
   d="m 158.76,352.36 c -0.54,0 -1.05,-0.06 -1.49,-0.1 -0.36,-0.04 -0.7,-0.08 -1.01,-0.08 h -0.36 c -4.57,0 -12.47,-1.39 -24.13,-8.02 -8.74,-4.97 -17.44,-11.73 -24.48,-19.04 -12.75,-13.23 -21.6,-29.63 -25.58,-47.42 -0.83,-3.71 1.22,-7.51 4.77,-8.82 l 16.29,-6.03 c 0.85,-0.32 1.74,-0.48 2.65,-0.48 2.44,0 4.76,1.17 6.21,3.14 l 10.67,14.48 c 2.12,2.88 2,6.78 -0.29,9.49 l -6.62,7.83 c -0.78,0.92 -0.83,2.27 -0.13,3.28 2.33,3.32 4.93,6.48 7.74,9.39 3.26,3.38 6.82,6.47 10.59,9.2 0.98,0.71 2.4,0.66 3.31,-0.11 l 7.43,-6.28 c 1.37,-1.16 3.12,-1.8 4.93,-1.8 1.65,0 3.23,0.52 4.57,1.5 l 14.48,10.67 c 2.75,2.03 3.85,5.67 2.67,8.86 l -5.74,15.54 c -0.71,1.91 -2.18,3.48 -4.04,4.31 -0.74,0.33 -1.54,0.49 -2.44,0.49 z m -2.54,-1.08 c 0.4,0 0.77,0.04 1.15,0.08 0.42,0.05 0.89,0.1 1.39,0.1 0.77,0 1.45,-0.13 2.06,-0.41 1.64,-0.73 2.94,-2.12 3.56,-3.8 l 5.74,-15.54 c 1.04,-2.81 0.07,-6.03 -2.36,-7.83 l -14.48,-10.67 c -1.18,-0.87 -2.58,-1.33 -4.04,-1.33 -1.59,0 -3.14,0.56 -4.35,1.59 l -7.43,6.28 c -1.22,1.03 -3.11,1.09 -4.41,0.15 -3.81,-2.75 -7.41,-5.88 -10.71,-9.3 -2.84,-2.95 -5.47,-6.15 -7.83,-9.5 -0.94,-1.34 -0.86,-3.14 0.18,-4.37 l 6.62,-7.83 c 2.02,-2.39 2.13,-5.84 0.26,-8.38 L 110.9,266.04 c -1.28,-1.74 -3.33,-2.78 -5.49,-2.78 -0.8,0 -1.59,0.14 -2.34,0.42 l -16.29,6.03 c -3.13,1.16 -4.94,4.51 -4.21,7.79 3.94,17.63 12.71,33.88 25.35,47 6.99,7.25 15.61,13.96 24.28,18.89 11.49,6.53 19.22,7.9 23.69,7.9 h 0.31 c 0.01,-0.01 0.02,-0.01 0.02,-0.01 z m 2.54,-3 c -0.3,0 -0.65,-0.04 -1.03,-0.08 -0.46,-0.05 -0.95,-0.1 -1.47,-0.1 H 155.9 C 144.04,348.1 124.41,337 110.22,322.29 97.99,309.6 89.5,293.87 85.69,276.81 c -0.39,-1.76 0.54,-3.49 2.21,-4.11 l 16.29,-6.03 c 1.47,-0.55 3.23,-0.01 4.16,1.26 l 10.67,14.48 c 1,1.35 0.94,3.18 -0.13,4.44 l -6.62,7.83 c -1.97,2.34 -2.12,5.73 -0.36,8.25 2.45,3.49 5.19,6.82 8.14,9.88 3.42,3.55 7.17,6.81 11.14,9.67 1.17,0.84 2.55,1.29 3.98,1.29 1.59,0 3.14,-0.56 4.35,-1.59 l 7.43,-6.28 c 1.23,-1.04 3.13,-1.09 4.44,-0.13 l 14.48,10.67 c 1.3,0.96 1.82,2.67 1.27,4.16 v 0 l -5.74,15.54 c -0.33,0.89 -1.01,1.61 -1.87,2 -0.21,0.1 -0.44,0.14 -0.77,0.14 z m -2.5,-1.08 c 0.57,0 1.08,0.06 1.54,0.11 0.63,0.07 1.16,0.11 1.36,0.02 0.64,-0.29 1.15,-0.83 1.4,-1.49 l 5.74,-15.54 c 0.41,-1.12 0.02,-2.41 -0.96,-3.13 L 150.86,316.5 c -0.99,-0.72 -2.41,-0.69 -3.33,0.09 l -7.43,6.28 c -1.37,1.16 -3.12,1.8 -4.93,1.8 -1.63,0 -3.19,-0.5 -4.51,-1.46 -4.01,-2.9 -7.8,-6.19 -11.26,-9.78 -2.99,-3.1 -5.76,-6.46 -8.23,-9.99 -2,-2.86 -1.83,-6.7 0.4,-9.34 l 6.62,-7.83 c 0.8,-0.95 0.84,-2.32 0.09,-3.33 l -10.67,-14.48 c -0.71,-0.96 -2.02,-1.36 -3.13,-0.95 l -16.29,6.03 c -1.25,0.46 -1.94,1.75 -1.65,3.07 3.78,16.9 12.18,32.48 24.3,45.05 14.03,14.56 33.39,25.54 45.03,25.54 z"
   id="path52" />

</g>
  </g>
</svg>
