<?xml version="1.0" encoding="UTF-8" standalone="no"?>
<!-- Created with Inkscape (http://www.inkscape.org/) -->

<svg
   version="1.1"
   id="svg282"
   width="71.879997"
   height="78.099998"
   xmlns:inkscape="http://www.inkscape.org/namespaces/inkscape"
   xmlns:sodipodi="http://sodipodi.sourceforge.net/DTD/sodipodi-0.dtd"
   xmlns="http://www.w3.org/2000/svg"
   xmlns:svg="http://www.w3.org/2000/svg">
  <defs
     id="defs286" />
  <sodipodi:namedview
     id="namedview284"
     pagecolor="#ffffff"
     bordercolor="#666666"
     borderopacity="1.0"
     inkscape:pageshadow="2"
     inkscape:pageopacity="0.0"
     inkscape:pagecheckerboard="0" />
  <inkscape:clipboard
     style="font-variation-settings:normal;opacity:1;vector-effect:none;fill:#000000;fill-opacity:1;stroke-width:1;stroke-linecap:butt;stroke-linejoin:miter;stroke-miterlimit:4;stroke-dasharray:none;stroke-dashoffset:0;stroke-opacity:1;-inkscape-stroke:none;stop-color:#000000;stop-opacity:1"
     min="141.07,105.67"
     max="212.95,183.77"
     geom-min="141.07,105.67"
     geom-max="212.95,183.77" />
  <g
     id="g288"
     transform="translate(-141.07,-105.67)">
    <g
       id="g42">
	<g
   id="g34">
		<path
   d="m 196.23,138.42 c 0,-9.63 -8.62,-17.46 -19.21,-17.46 -10.59,0 -19.21,7.83 -19.21,17.46 0,9.63 8.62,17.46 19.21,17.46 10.59,0 19.21,-7.84 19.21,-17.46 z m -34.35,0 c 0,-7.58 6.79,-13.75 15.13,-13.75 8.34,0 15.13,6.17 15.13,13.75 0,7.58 -6.79,13.75 -15.13,13.75 -8.34,0 -15.13,-6.17 -15.13,-13.75 z"
   id="path30" />

		<path
   d="m 177.01,156.28 c -10.84,0 -19.66,-8.02 -19.66,-17.87 0,-9.85 8.82,-17.87 19.66,-17.87 10.84,0 19.66,8.02 19.66,17.87 0.01,9.86 -8.81,17.87 -19.66,17.87 z m 0,-34.92 c -10.35,0 -18.76,7.65 -18.76,17.05 0,9.4 8.42,17.05 18.76,17.05 10.35,0 18.76,-7.65 18.76,-17.05 0.01,-9.4 -8.41,-17.05 -18.76,-17.05 z m 0,31.22 c -8.59,0 -15.58,-6.35 -15.58,-14.16 0,-7.81 6.99,-14.16 15.58,-14.16 8.59,0 15.58,6.35 15.58,14.16 0.01,7.8 -6.98,14.16 -15.58,14.16 z m 0,-27.51 c -8.1,0 -14.68,5.99 -14.68,13.35 0,7.36 6.59,13.35 14.68,13.35 8.1,0 14.68,-5.99 14.68,-13.35 0.01,-7.36 -6.58,-13.35 -14.68,-13.35 z"
   id="path32" />

	</g>

	<g
   id="g40">
		<path
   d="m 176.97,183.37 h 0.14 c 2.64,-0.03 5.15,-1.1 6.88,-2.91 2.03,-2.13 3.92,-4.1 5.68,-5.94 18.01,-18.81 22.85,-23.86 22.85,-36.18 0,-17.79 -15.92,-32.26 -35.49,-32.26 -19.57,0 -35.49,14.47 -35.49,32.26 0,14.55 12.19,26.35 23.98,37.77 1.54,1.49 3.13,3.03 4.63,4.52 1.73,1.74 4.23,2.74 6.82,2.74 z M 145.6,138.33 c 0,-15.74 14.09,-28.55 31.41,-28.55 17.32,0 31.41,12.81 31.41,28.55 0,10.93 -4.19,15.31 -21.85,33.74 -1.76,1.84 -3.65,3.82 -5.68,5.95 -0.97,1.02 -2.37,1.62 -3.85,1.63 h -0.08 c -1.45,0 -2.85,-0.56 -3.83,-1.53 -1.52,-1.51 -3.12,-3.06 -4.67,-4.56 -11.23,-10.88 -22.86,-22.15 -22.86,-35.23 z"
   id="path36" />

		<path
   d="m 176.97,183.77 v 0 c -2.72,0 -5.33,-1.05 -7.17,-2.87 -1.42,-1.41 -2.91,-2.85 -4.36,-4.26 l -0.27,-0.26 c -11.85,-11.48 -24.1,-23.35 -24.1,-38.05 0,-18.01 16.12,-32.66 35.94,-32.66 19.82,0 35.94,14.65 35.94,32.66 0,12.47 -4.86,17.55 -22.96,36.44 -1.78,1.86 -3.66,3.82 -5.68,5.94 -1.81,1.91 -4.44,3.02 -7.21,3.06 z m 0.04,-77.29 c -19.32,0 -35.04,14.29 -35.04,31.85 0,14.38 12.13,26.13 23.85,37.49 l 0.27,0.26 c 1.45,1.41 2.95,2.86 4.37,4.27 1.66,1.65 4.03,2.6 6.5,2.6 h 0.13 c 2.51,-0.03 4.9,-1.04 6.54,-2.77 2.02,-2.12 3.9,-4.09 5.65,-5.92 17.94,-18.74 22.76,-23.77 22.76,-35.93 0.02,-17.56 -15.7,-31.85 -35.03,-31.85 z m 0.04,73.59 c -1.66,0 -3.17,-0.61 -4.24,-1.66 -1.44,-1.43 -2.95,-2.89 -4.42,-4.31 l -0.25,-0.24 c -11.31,-10.95 -23,-22.28 -23,-35.52 0,-15.97 14.29,-28.96 31.86,-28.96 17.57,0 31.86,12.99 31.86,28.96 0,11.08 -4.22,15.48 -21.96,34.01 l -0.79,0.83 c -1.53,1.6 -3.16,3.3 -4.89,5.12 -1.04,1.1 -2.56,1.75 -4.17,1.77 z m -0.04,-69.88 c -17.07,0 -30.96,12.62 -30.96,28.14 0,12.92 11.57,24.12 22.75,34.96 l 0.25,0.24 c 1.47,1.42 2.98,2.89 4.42,4.32 0.9,0.89 2.17,1.4 3.49,1.4 1.42,-0.02 2.7,-0.56 3.59,-1.49 1.73,-1.82 3.36,-3.52 4.89,-5.12 l 0.79,-0.83 c 17.56,-18.34 21.74,-22.7 21.74,-33.48 0.01,-15.51 -13.88,-28.14 -30.96,-28.14 z"
   id="path38" />

	</g>

</g>
  </g>
</svg>
