<?xml version="1.0" encoding="UTF-8" standalone="no"?>
<!-- Created with Inkscape (http://www.inkscape.org/) -->

<svg
   version="1.1"
   id="svg3059"
   width="91.730003"
   height="91.730003"
   xmlns:inkscape="http://www.inkscape.org/namespaces/inkscape"
   xmlns:sodipodi="http://sodipodi.sourceforge.net/DTD/sodipodi-0.dtd"
   xmlns="http://www.w3.org/2000/svg"
   xmlns:svg="http://www.w3.org/2000/svg">
  <defs
     id="defs3063" />
  <sodipodi:namedview
     id="namedview3061"
     pagecolor="#ffffff"
     bordercolor="#666666"
     borderopacity="1.0"
     inkscape:pageshadow="2"
     inkscape:pageopacity="0.0"
     inkscape:pagecheckerboard="0" />
  <inkscape:clipboard
     style="font-variation-settings:normal;opacity:1;vector-effect:none;fill:#dfb777;fill-opacity:1;stroke-width:0.99999999;stroke-linecap:butt;stroke-linejoin:miter;stroke-miterlimit:4;stroke-dasharray:none;stroke-dashoffset:0;stroke-opacity:1;-inkscape-stroke:none;stop-color:#000000;stop-opacity:1"
     min="494.52863,646.17836"
     max="586.25863,737.90836"
     geom-min="494.52863,646.17836"
     geom-max="586.25863,737.90836" />
  <g
     id="g3065"
     transform="matrix(3.7795276,0,0,3.7795276,-494.52864,-646.17837)">
    <g
       id="g74"
       transform="matrix(0.26458333,0,0,0.26458333,13.953764,92.037526)"
       style="fill:#dfb777;fill-opacity:1">
      <path
         d="m 524.59,386.23 8.17,3.06 -3.06,-8.17 -27.75,-74.12 -2.87,-7.65 -4.24,6.99 -17.02,28.02 -0.73,0.44 -27.29,16.58 -6.98,4.24 7.65,2.87 z m 0.62,-4.01 0.49,-0.49 0.29,0.78 z m -26.98,-73.83 26.07,69.64 -42.5,-42.5 -0.15,0.15 z m -19.08,29.79 v 0 l -0.15,0.15 42.5,42.5 -69.64,-26.07 z"
         id="path70"
         style="fill:#dfb777;fill-opacity:1" />
      <path
         d="m 533.52,390.05 -91.73,-34.34 35.7,-21.69 21.69,-35.7 z m -8.77,-4.24 7.24,2.71 -33,-88.15 -20.84,34.31 -34.31,20.84 z m 2,-2.53 -2.35,-0.88 1.47,-1.47 z m -3.47,-1.3 -72.44,-27.12 28.11,-17.08 1.29,-0.65 18.08,-29.77 27.12,72.44 -43.64,-43.64 -2.17,2.17 z m -70.4,-27.32 66.84,25.02 -40.82,-40.82 z m 29.45,-19.24 40.82,40.82 -25.02,-66.83 z"
         id="path72"
         style="fill:#dfb777;fill-opacity:1" />
    </g>
  </g>
</svg>
