<?xml version="1.0" encoding="UTF-8" standalone="no"?>
<!-- Created with Inkscape (http://www.inkscape.org/) -->

<svg
   version="1.1"
   id="svg193"
   width="90.730003"
   height="93.349998"
   xmlns:inkscape="http://www.inkscape.org/namespaces/inkscape"
   xmlns:sodipodi="http://sodipodi.sourceforge.net/DTD/sodipodi-0.dtd"
   xmlns="http://www.w3.org/2000/svg"
   xmlns:svg="http://www.w3.org/2000/svg">
  <defs
     id="defs197" />
  <sodipodi:namedview
     id="namedview195"
     pagecolor="#ffffff"
     bordercolor="#666666"
     borderopacity="1.0"
     inkscape:pageshadow="2"
     inkscape:pageopacity="0.0"
     inkscape:pagecheckerboard="0" />
  <inkscape:clipboard
     style="font-variation-settings:normal;opacity:1;vector-effect:none;fill:#000000;fill-opacity:1;stroke-width:1;stroke-linecap:butt;stroke-linejoin:miter;stroke-miterlimit:4;stroke-dasharray:none;stroke-dashoffset:0;stroke-opacity:1;-inkscape-stroke:none;stop-color:#000000;stop-opacity:1"
     min="191.93,221.65"
     max="282.66,315"
     geom-min="191.93,221.65"
     geom-max="282.66,315" />
  <g
     id="g199"
     transform="translate(-191.93,-221.65)">
    <g
       id="g68">
	<g
   id="g60">
		<path
   d="m 199.52,314.55 h 75.54 c 3.94,0 7.15,-3.21 7.15,-7.15 v -16.19 c 0,-4.92 -3.16,-9.17 -7.87,-10.59 l -6.1,-1.84 c -10.1,-3.04 -20.57,-4.58 -31.12,-4.58 -10.32,0 -20.56,1.51 -30.44,4.48 l -6.43,1.94 c -4.71,1.42 -7.87,5.67 -7.87,10.59 v 16.19 c -0.01,3.94 3.2,7.15 7.14,7.15 z m -3.07,-23.34 c 0,-3.06 2.04,-5.8 4.97,-6.69 l 6.43,-1.94 c 9.5,-2.86 19.35,-4.31 29.27,-4.31 10.15,0 20.23,1.48 29.95,4.41 l 6.1,1.84 c 2.97,0.89 4.97,3.58 4.97,6.69 v 16.19 c 0,1.69 -1.38,3.07 -3.07,3.07 h -75.54 c -1.69,0 -3.07,-1.38 -3.07,-3.07 v -16.19 z"
   id="path56" />

		<path
   d="m 275.07,315 h -75.54 c -4.19,0 -7.6,-3.41 -7.6,-7.6 v -16.19 c 0,-5.12 3.29,-9.55 8.19,-11.02 l 6.43,-1.94 c 9.92,-2.99 20.21,-4.5 30.57,-4.5 10.59,0 21.11,1.55 31.25,4.6 l 6.1,1.84 c 4.9,1.47 8.19,5.9 8.19,11.02 v 16.19 c 0,4.19 -3.41,7.6 -7.59,7.6 z m -37.95,-40.36 c -10.28,0 -20.47,1.5 -30.31,4.47 l -6.43,1.94 c -4.52,1.36 -7.55,5.44 -7.55,10.16 v 16.19 c 0,3.69 3.01,6.7 6.7,6.7 h 75.54 c 3.69,0 6.7,-3.01 6.7,-6.7 v -16.19 c 0,-4.72 -3.04,-8.8 -7.55,-10.16 l -6.1,-1.84 c -10.07,-3.03 -20.5,-4.57 -31,-4.57 z m 37.95,36.28 h -75.54 c -1.94,0 -3.52,-1.58 -3.52,-3.52 v -16.19 c 0,-3.25 2.18,-6.18 5.29,-7.12 l 6.43,-1.94 c 19.3,-5.81 40.17,-5.71 59.47,0.1 l 6.1,1.84 c 3.16,0.95 5.29,3.81 5.29,7.12 v 16.19 c -0.01,1.94 -1.59,3.52 -3.52,3.52 z m -37.95,-32.2 c -9.88,0 -19.68,1.44 -29.14,4.29 l -6.43,1.94 c -2.74,0.82 -4.65,3.4 -4.65,6.26 v 16.19 c 0,1.44 1.18,2.62 2.62,2.62 h 75.54 c 1.44,0 2.62,-1.18 2.62,-2.62 v -16.19 c 0,-2.9 -1.87,-5.42 -4.65,-6.26 l -6.1,-1.84 c -9.67,-2.91 -19.7,-4.39 -29.81,-4.39 z"
   id="path58" />

	</g>

	<g
   id="g66">
		<path
   d="m 237.29,266.32 c 12.19,0 22.11,-9.92 22.11,-22.11 0,-12.19 -9.92,-22.11 -22.11,-22.11 -12.19,0 -22.11,9.92 -22.11,22.11 0,12.19 9.92,22.11 22.11,22.11 z m 0,-40.14 c 9.94,0 18.03,8.09 18.03,18.03 0,9.94 -8.09,18.03 -18.03,18.03 -9.94,0 -18.03,-8.09 -18.03,-18.03 0,-9.94 8.09,-18.03 18.03,-18.03 z"
   id="path62" />

		<path
   d="m 237.29,266.77 c -12.44,0 -22.56,-10.12 -22.56,-22.56 0,-12.44 10.12,-22.56 22.56,-22.56 12.44,0 22.56,10.12 22.56,22.56 0,12.44 -10.12,22.56 -22.56,22.56 z m 0,-44.22 c -11.94,0 -21.66,9.72 -21.66,21.66 0,11.94 9.72,21.66 21.66,21.66 11.94,0 21.66,-9.72 21.66,-21.66 0,-11.94 -9.71,-21.66 -21.66,-21.66 z m 0,40.14 c -10.19,0 -18.48,-8.29 -18.48,-18.48 0,-10.19 8.29,-18.48 18.48,-18.48 10.19,0 18.48,8.29 18.48,18.48 0,10.19 -8.29,18.48 -18.48,18.48 z m 0,-36.06 c -9.7,0 -17.58,7.89 -17.58,17.58 0,9.69 7.89,17.58 17.58,17.58 9.7,0 17.58,-7.89 17.58,-17.58 0.01,-9.69 -7.88,-17.58 -17.58,-17.58 z"
   id="path64" />

	</g>

</g>
  </g>
</svg>
